<svg width="175" height="68" viewBox="0 0 175 68" fill="none" xmlns="http://www.w3.org/2000/svg">
<path d="M11.7598 18.6309H7.55859V28H2.28516V2.40625H11.7949C14.8184 2.40625 17.1504 3.08008 18.791 4.42773C20.4316 5.77539 21.252 7.67969 21.252 10.1406C21.252 11.8867 20.8711 13.3457 20.1094 14.5176C19.3594 15.6777 18.2168 16.6035 16.6816 17.2949L22.2188 27.7539V28H16.5586L11.7598 18.6309ZM7.55859 14.3594H11.8125C13.1367 14.3594 14.1621 14.0254 14.8887 13.3574C15.6152 12.6777 15.9785 11.7461 15.9785 10.5625C15.9785 9.35547 15.6328 8.40625 14.9414 7.71484C14.2617 7.02344 13.2129 6.67773 11.7949 6.67773H7.55859V14.3594ZM33.6973 28.3516C30.9082 28.3516 28.6348 27.4961 26.877 25.7852C25.1309 24.0742 24.2578 21.7949 24.2578 18.9473V18.4551C24.2578 16.5449 24.627 14.8398 25.3652 13.3398C26.1035 11.8281 27.1465 10.668 28.4941 9.85938C29.8535 9.03906 31.4004 8.62891 33.1348 8.62891C35.7363 8.62891 37.7812 9.44922 39.2695 11.0898C40.7695 12.7305 41.5195 15.0566 41.5195 18.0684V20.1426H29.4082C29.5723 21.3848 30.0645 22.3809 30.8848 23.1309C31.7168 23.8809 32.7656 24.2559 34.0312 24.2559C35.9883 24.2559 37.5176 23.5469 38.6191 22.1289L41.1152 24.9238C40.3535 26.002 39.3223 26.8457 38.0215 27.4551C36.7207 28.0527 35.2793 28.3516 33.6973 28.3516ZM33.1172 12.7422C32.1094 12.7422 31.2891 13.082 30.6562 13.7617C30.0352 14.4414 29.6367 15.4141 29.4609 16.6797H36.5273V16.2754C36.5039 15.1504 36.1992 14.2832 35.6133 13.6738C35.0273 13.0527 34.1953 12.7422 33.1172 12.7422ZM49.0957 8.98047L49.2539 11.1777C50.6133 9.47852 52.4355 8.62891 54.7207 8.62891C56.7363 8.62891 58.2363 9.2207 59.2207 10.4043C60.2051 11.5879 60.709 13.3574 60.7324 15.7129V28H55.6523V15.8359C55.6523 14.7578 55.418 13.9785 54.9492 13.498C54.4805 13.0059 53.7012 12.7598 52.6113 12.7598C51.1816 12.7598 50.1094 13.3691 49.3945 14.5879V28H44.3145V8.98047H49.0957ZM63.8086 18.3496C63.8086 15.3848 64.4707 13.0234 65.7949 11.2656C67.1309 9.50781 68.9531 8.62891 71.2617 8.62891C73.1133 8.62891 74.6426 9.32031 75.8496 10.7031V1H80.9473V28H76.3594L76.1133 25.9785C74.8477 27.5605 73.2188 28.3516 71.2266 28.3516C68.9883 28.3516 67.1895 27.4727 65.8301 25.7148C64.4824 23.9453 63.8086 21.4902 63.8086 18.3496ZM68.8887 18.7188C68.8887 20.5 69.1992 21.8652 69.8203 22.8145C70.4414 23.7637 71.3438 24.2383 72.5273 24.2383C74.0977 24.2383 75.2051 23.5762 75.8496 22.252V14.7461C75.2168 13.4219 74.1211 12.7598 72.5625 12.7598C70.1133 12.7598 68.8887 14.7461 68.8887 18.7188ZM90.2461 28H85.1484V1H90.2461V28ZM11.7598 50.6309H7.55859V60H2.28516V34.4062H11.7949C14.8184 34.4062 17.1504 35.0801 18.791 36.4277C20.4316 37.7754 21.252 39.6797 21.252 42.1406C21.252 43.8867 20.8711 45.3457 20.1094 46.5176C19.3594 47.6777 18.2168 48.6035 16.6816 49.2949L22.2188 59.7539V60H16.5586L11.7598 50.6309ZM7.55859 46.3594H11.8125C13.1367 46.3594 14.1621 46.0254 14.8887 45.3574C15.6152 44.6777 15.9785 43.7461 15.9785 42.5625C15.9785 41.3555 15.6328 40.4062 14.9414 39.7148C14.2617 39.0234 13.2129 38.6777 11.7949 38.6777H7.55859V46.3594ZM36.334 58.0664C35.0801 59.5898 33.3457 60.3516 31.1309 60.3516C29.0918 60.3516 27.5332 59.7656 26.4551 58.5938C25.3887 57.4219 24.8438 55.7051 24.8203 53.4434V40.9805H29.9004V53.2676C29.9004 55.248 30.8027 56.2383 32.6074 56.2383C34.3301 56.2383 35.5137 55.6406 36.1582 54.4453V40.9805H41.2559V60H36.4746L36.334 58.0664ZM31.2012 36.0059C31.2012 36.627 30.9727 37.1543 30.5156 37.5879C30.0586 38.0098 29.4727 38.2207 28.7578 38.2207C28.0312 38.2207 27.4453 38.0039 27 37.5703C26.5547 37.1367 26.332 36.6152 26.332 36.0059C26.332 35.3965 26.5547 34.875 27 34.4414C27.4453 33.9961 28.0312 33.7734 28.7578 33.7734C29.4844 33.7734 30.0703 33.9961 30.5156 34.4414C30.9727 34.875 31.2012 35.3965 31.2012 36.0059ZM34.8926 36.0059C34.8926 35.373 35.127 34.8457 35.5957 34.4238C36.0762 33.9902 36.6562 33.7734 37.3359 33.7734C38.0273 33.7734 38.6016 33.9902 39.0586 34.4238C39.5273 34.8574 39.7617 35.3848 39.7617 36.0059C39.7617 36.6152 39.5391 37.1426 39.0938 37.5879C38.6484 38.0215 38.0625 38.2383 37.3359 38.2383C36.6094 38.2383 36.0176 38.0215 35.5605 37.5879C35.1152 37.1426 34.8926 36.6152 34.8926 36.0059ZM52.998 56.2559C53.9355 56.2559 54.6973 55.998 55.2832 55.4824C55.8691 54.9668 56.1738 54.2812 56.1973 53.4258H60.9609C60.9492 54.7148 60.5977 55.8984 59.9062 56.9766C59.2148 58.043 58.2656 58.875 57.0586 59.4727C55.8633 60.0586 54.5391 60.3516 53.0859 60.3516C50.3672 60.3516 48.2227 59.4902 46.6523 57.7676C45.082 56.0332 44.2969 53.6426 44.2969 50.5957V50.2617C44.2969 47.332 45.0762 44.9941 46.6348 43.248C48.1934 41.502 50.332 40.6289 53.0508 40.6289C55.4297 40.6289 57.334 41.3086 58.7637 42.668C60.2051 44.0156 60.9375 45.8145 60.9609 48.0645H56.1973C56.1738 47.0801 55.8691 46.2832 55.2832 45.6738C54.6973 45.0527 53.9238 44.7422 52.9629 44.7422C51.7793 44.7422 50.8828 45.1758 50.2734 46.043C49.6758 46.8984 49.377 48.293 49.377 50.2266V50.7539C49.377 52.7109 49.6758 54.1172 50.2734 54.9727C50.8711 55.8281 51.7793 56.2559 52.998 56.2559ZM70.7695 52.3711L68.9414 54.1992V60H63.8613V33H68.9414V47.959L69.9258 46.6934L74.7949 40.9805H80.8945L74.0215 48.9082L81.4922 60H75.6562L70.7695 52.3711ZM82.002 50.3496C82.002 47.4316 82.6934 45.082 84.0762 43.3008C85.4707 41.5195 87.3457 40.6289 89.7012 40.6289C91.7871 40.6289 93.4102 41.3438 94.5703 42.7734L94.7812 40.9805H99.3867V59.3672C99.3867 61.0312 99.0059 62.4785 98.2441 63.709C97.4941 64.9395 96.4336 65.877 95.0625 66.5215C93.6914 67.166 92.0859 67.4883 90.2461 67.4883C88.8516 67.4883 87.4922 67.207 86.168 66.6445C84.8438 66.0938 83.8418 65.3789 83.1621 64.5L85.4121 61.4062C86.6777 62.8242 88.2129 63.5332 90.0176 63.5332C91.3652 63.5332 92.4141 63.1699 93.1641 62.4434C93.9141 61.7285 94.2891 60.709 94.2891 59.3848V58.3652C93.1172 59.6895 91.5762 60.3516 89.666 60.3516C87.3809 60.3516 85.5293 59.4609 84.1113 57.6797C82.7051 55.8867 82.002 53.5137 82.002 50.5605V50.3496ZM87.082 50.7188C87.082 52.4414 87.4277 53.7949 88.1191 54.7793C88.8105 55.752 89.7598 56.2383 90.9668 56.2383C92.5137 56.2383 93.6211 55.6582 94.2891 54.498V46.5C93.6094 45.3398 92.5137 44.7598 91.002 44.7598C89.7832 44.7598 88.8223 45.2578 88.1191 46.2539C87.4277 47.25 87.082 48.7383 87.082 50.7188ZM114.328 60C114.094 59.543 113.924 58.9746 113.818 58.2949C112.588 59.666 110.988 60.3516 109.02 60.3516C107.156 60.3516 105.609 59.8125 104.379 58.7344C103.16 57.6562 102.551 56.2969 102.551 54.6562C102.551 52.6406 103.295 51.0938 104.783 50.0156C106.283 48.9375 108.445 48.3926 111.27 48.3809H113.607V47.291C113.607 46.4121 113.379 45.709 112.922 45.1816C112.477 44.6543 111.768 44.3906 110.795 44.3906C109.939 44.3906 109.266 44.5957 108.773 45.0059C108.293 45.416 108.053 45.9785 108.053 46.6934H102.973C102.973 45.5918 103.312 44.5723 103.992 43.6348C104.672 42.6973 105.633 41.9648 106.875 41.4375C108.117 40.8984 109.512 40.6289 111.059 40.6289C113.402 40.6289 115.26 41.2207 116.631 42.4043C118.014 43.5762 118.705 45.2285 118.705 47.3613V55.6055C118.717 57.4102 118.969 58.7754 119.461 59.7012V60H114.328ZM110.127 56.4668C110.877 56.4668 111.568 56.3027 112.201 55.9746C112.834 55.6348 113.303 55.1836 113.607 54.6211V51.3516H111.709C109.166 51.3516 107.812 52.2305 107.648 53.9883L107.631 54.2871C107.631 54.9199 107.854 55.4414 108.299 55.8516C108.744 56.2617 109.354 56.4668 110.127 56.4668ZM133.998 58.0664C132.744 59.5898 131.01 60.3516 128.795 60.3516C126.756 60.3516 125.197 59.7656 124.119 58.5938C123.053 57.4219 122.508 55.7051 122.484 53.4434V40.9805H127.564V53.2676C127.564 55.248 128.467 56.2383 130.271 56.2383C131.994 56.2383 133.178 55.6406 133.822 54.4453V40.9805H138.92V60H134.139L133.998 58.0664ZM151.506 60.3516C148.717 60.3516 146.443 59.4961 144.686 57.7852C142.939 56.0742 142.066 53.7949 142.066 50.9473V50.4551C142.066 48.5449 142.436 46.8398 143.174 45.3398C143.912 43.8281 144.955 42.668 146.303 41.8594C147.662 41.0391 149.209 40.6289 150.943 40.6289C153.545 40.6289 155.59 41.4492 157.078 43.0898C158.578 44.7305 159.328 47.0566 159.328 50.0684V52.1426H147.217C147.381 53.3848 147.873 54.3809 148.693 55.1309C149.525 55.8809 150.574 56.2559 151.84 56.2559C153.797 56.2559 155.326 55.5469 156.428 54.1289L158.924 56.9238C158.162 58.002 157.131 58.8457 155.83 59.4551C154.529 60.0527 153.088 60.3516 151.506 60.3516ZM150.926 44.7422C149.918 44.7422 149.098 45.082 148.465 45.7617C147.844 46.4414 147.445 47.4141 147.27 48.6797H154.336V48.2754C154.312 47.1504 154.008 46.2832 153.422 45.6738C152.836 45.0527 152.004 44.7422 150.926 44.7422ZM172.916 45.7441C172.225 45.6504 171.615 45.6035 171.088 45.6035C169.166 45.6035 167.906 46.2539 167.309 47.5547V60H162.229V40.9805H167.027L167.168 43.248C168.188 41.502 169.6 40.6289 171.404 40.6289C171.967 40.6289 172.494 40.7051 172.986 40.8574L172.916 45.7441Z" fill="#333333"/>
<rect x="102" y="26" width="36.5303" height="4" rx="2" transform="rotate(-45 102 26)" fill="#333333"/>
<rect x="102.18" y="6.89951" width="9.55733" height="4" rx="2" transform="rotate(-45 102.18 6.89951)" fill="#333333"/>
<rect x="159.1" y="26" width="9.55733" height="4" rx="2" transform="rotate(-45 159.1 26)" fill="#333333"/>
<rect x="121" y="26" width="36.5303" height="4" rx="2" transform="rotate(-45 121 26)" fill="#333333"/>
<rect x="140" y="26" width="36.5303" height="4" rx="2" transform="rotate(-45 140 26)" fill="#333333"/>
</svg>
